<?xml version="1.0" encoding="utf-8"?>
<!-- Generator: Adobe Illustrator 16.0.0, SVG Export Plug-In . SVG Version: 6.00 Build 0)  -->
<!DOCTYPE svg PUBLIC "-//W3C//DTD SVG 1.1//EN" "http://www.w3.org/Graphics/SVG/1.1/DTD/svg11.dtd">
<svg version="1.1" id="Слой_1" xmlns="http://www.w3.org/2000/svg" xmlns:xlink="http://www.w3.org/1999/xlink" x="0px" y="0px"
	 width="128px" height="128px" viewBox="0 0 128 128" enable-background="new 0 0 128 128" xml:space="preserve">
<g id="Arrow_26_3_">
</g>
<g id="Arrow_26_2_" enable-background="new    ">
</g>
<g id="Arrow_26_1_" enable-background="new    ">
</g>
<g id="Arrow_26" enable-background="new    ">
</g>
<path d="M82.387,19L63.585,0.198L44.786,19H19v26.216L0.197,64.019L19,82.818V109h25.786l18.799,18.801L82.388,109H109V82.816
	l18.803-18.798L109,45.217V19H82.387z M104,24v15.526l-7.063-6.733L72.348,57H71v-1.746l24.008-24.389L88.077,24H104z M104,47.573
	V57H80.396l16.542-16.16L104,47.573z M86.961,30.865L71,47.208V24h9.03L86.961,30.865z M63.585,8.244L74.339,19H65v33.897
	l-1.002,1.272L63,52.9V19H52.834L63.585,8.244z M66.654,65H65v2.089l-1.002-1.272L63,67.088V65h-2.482l1.271-0.998L60.515,63H63
	v-2.053l0.998,1.271L65,60.944V63h1.657l-1.273,1.002L66.654,65z M47.145,24H57v23.211L40.625,30.865L47.145,24z M24,24h15.095
	l-6.517,6.865L57,55.257V57h-2.175L30.648,32.793L24,39.525V24z M24,47.571l6.648-6.731L46.776,57H24V47.571z M19,74.771
	L8.245,64.019L19,53.265V63h33.47l1.272,1.002L52.473,65H19V74.771z M46.779,71L30.648,87.178L24,80.462V71H46.779z M24,104V88.511
	l6.648,6.712L54.827,71H57v1.777L32.578,97.154L39.094,104H24z M40.625,97.154L57,80.826V104h-9.856L40.625,97.154z M63.585,119.754
	L52.834,109H63V75.133l0.998-1.271L65,75.135V109h9.338L63.585,119.754z M80.032,104H71V80.827l15.961,16.327L80.032,104z M104,104
	H88.078l6.93-6.846L71,72.779V71h1.347l24.591,24.223L104,88.508V104z M104,80.461l-7.063,6.717L80.393,71H104V80.461z
	 M119.754,64.019L109,74.771V65H74.702l-1.27-0.998L74.705,63H109v-9.735L119.754,64.019z"/>
</svg>
