<?xml version="1.0" encoding="utf-8"?>
<!-- Generator: Adobe Illustrator 16.0.0, SVG Export Plug-In . SVG Version: 6.00 Build 0)  -->
<!DOCTYPE svg PUBLIC "-//W3C//DTD SVG 1.1//EN" "http://www.w3.org/Graphics/SVG/1.1/DTD/svg11.dtd">
<svg version="1.1" id="Слой_1" xmlns="http://www.w3.org/2000/svg" xmlns:xlink="http://www.w3.org/1999/xlink" x="0px" y="0px"
	 width="128px" height="128px" viewBox="0 0 128 128" enable-background="new 0 0 128 128" xml:space="preserve">
<path d="M62.164,80.63c-0.676-0.609-1.471-1.072-2.336-1.359l-3.85-1.43c-0.459-0.196-0.833-0.553-1.051-1.002
	c-0.168-0.374-0.153-0.807,0.043-1.168c0.068-0.127,0.155-0.243,0.257-0.346c0.118-0.119,0.25-0.225,0.393-0.312
	c0.058-0.036,0.115-0.067,0.175-0.1c0.43-0.213,0.895-0.347,1.372-0.399c0.815-0.117,1.644-0.108,2.457,0.026
	c0.959,0.104,2.076,0.274,3.012,0.51L63,75.095v-4.71l-0.534-0.078c-0.954-0.23-2.003-0.402-2.978-0.517
	c-1.264-0.17-2.584-0.175-3.85-0.017c-1.603,0.146-3.146,0.761-4.404,1.764c-0.853,0.669-1.512,1.562-1.883,2.581
	c-0.559,1.551-0.566,3.247-0.009,4.799c0.288,0.771,0.745,1.467,1.344,2.032c0.519,0.5,1.104,0.926,1.741,1.263
	c0.839,0.45,1.728,0.8,2.648,1.04c0.305,0.091,0.606,0.188,0.908,0.288l0.455,0.167c0.044,0.019,0.087,0.036,0.131,0.054
	c0.449,0.161,0.861,0.414,1.206,0.744c0.24,0.225,0.425,0.501,0.54,0.809c0.072,0.281,0.073,0.576,0.003,0.858
	c-0.144,0.454-0.461,0.834-0.882,1.057c-0.458,0.238-0.955,0.394-1.468,0.459c-0.753,0.12-1.515,0.158-2.276,0.115
	c-0.997-0.076-1.989-0.208-2.972-0.397c-0.513-0.104-1.023-0.225-1.53-0.358L49,87l-0.021,5.105l0.373,0.064
	c1.173,0.219,2.354,0.37,3.544,0.454c1.041,0.098,2.088,0.118,3.131,0.063c0.997-0.072,1.986-0.258,2.939-0.555
	c1.122-0.317,2.162-0.871,3.049-1.627c0.801-0.681,1.412-1.559,1.777-2.543c0.635-1.652,0.624-3.484-0.036-5.127
	C63.41,81.983,62.864,81.228,62.164,80.63z"/>
<path d="M22.401,69.698c-1.663,0.042-3.302,0.417-4.818,1.102c-1.531,0.701-2.88,1.744-3.945,3.05
	c-3.327,4.208-3.416,10.127-0.217,14.436c1.575,2.014,3.787,3.436,6.273,4.032c2.621,0.639,5.332,0.542,7.902-0.277L28,91.92v-5.928
	l-0.083,0.051c-1.337,0.646-2.773,1.015-4.256,1.084c-1.541,0.121-3.064-0.33-4.293-1.268c-0.879-0.679-1.526-1.604-1.868-2.659
	c-0.378-1.149-0.42-2.383-0.124-3.556c0.273-1.2,0.947-2.272,1.908-3.042c0.852-0.713,1.894-1.162,2.996-1.292
	c1.951-0.216,3.887,0.154,5.626,1.063L28,76.438v-5.962l-0.238-0.072C26.021,69.844,24.227,69.605,22.401,69.698z"/>
<rect x="36" y="70" width="5" height="22"/>
<path d="M2.365,43.38c-0.718,0-1.203,0.277-1.719,0.773C0.128,44.651,0,45.329,0,46.044v6.163c0,0.7,0.162,1.353,0.676,1.83
	c0.516,0.478,1.087,0.744,1.791,0.744c0.7,0,1.257-0.266,1.771-0.744C4.752,53.561,5,52.907,5,52.208v-6.163
	c0-0.716-0.265-1.394-0.781-1.891C3.702,43.657,3.081,43.38,2.365,43.38z"/>
<path d="M17.712,54.781c0.702,0,1.134-0.266,1.649-0.744c0.514-0.477,0.639-1.13,0.639-1.83V38.392c0-0.716-0.09-1.394-0.607-1.891
	c-0.516-0.497-1.085-0.774-1.802-0.774s-1.315,0.277-1.832,0.774C15.243,36.998,15,37.675,15,38.392v13.816
	c0,0.7,0.338,1.353,0.852,1.83C16.365,54.516,17.011,54.781,17.712,54.781z"/>
<path d="M36,27.888c0-0.717-0.457-1.394-0.974-1.891s-1.331-0.775-2.047-0.775c-0.717,0-1.511,0.278-2.026,0.775
	C30.437,26.494,30,27.171,30,27.888v29.884c0,0.7,0.47,1.353,0.984,1.831c0.514,0.478,1.241,0.743,1.943,0.743
	c0.701,0,1.526-0.265,2.042-0.743C35.483,59.125,36,58.471,36,57.771V27.888z"/>
<path d="M51,52.208V38.392c0-0.716-0.284-1.394-0.801-1.891c-0.517-0.497-1.181-0.774-1.898-0.774c-0.718,0-1.171,0.277-1.688,0.774
	C46.096,36.998,46,37.675,46,38.392v13.816c0,0.7,0.143,1.353,0.657,1.83c0.514,0.478,1.078,0.744,1.78,0.744
	c0.702,0,1.272-0.266,1.787-0.744C50.738,53.561,51,52.907,51,52.208z"/>
<path d="M63.604,43.38c-0.716,0-1.323,0.277-1.839,0.773C61.248,44.651,61,45.329,61,46.044v6.163c0,0.7,0.283,1.353,0.796,1.83
	c0.515,0.478,1.147,0.744,1.85,0.744c0.703,0,1.167-0.266,1.682-0.744c0.514-0.477,0.672-1.13,0.672-1.83v-6.163
	c0-0.716-0.146-1.394-0.661-1.891C64.821,43.657,64.321,43.38,63.604,43.38z"/>
<path d="M78.938,54.781c0.703,0,1.522-0.266,2.036-0.744c0.516-0.477,1.026-1.13,1.026-1.83V38.392c0-0.716-0.477-1.394-0.994-1.891
	c-0.516-0.497-1.278-0.774-1.996-0.774c-0.717,0-1.524,0.277-2.04,0.774C76.452,36.998,76,37.675,76,38.392v13.816
	c0,0.7,0.45,1.353,0.964,1.83C77.478,54.516,78.237,54.781,78.938,54.781z"/>
<path d="M96.111,59.602C96.625,59.125,97,58.471,97,57.771V27.888c0-0.717-0.341-1.394-0.858-1.891
	c-0.516-0.497-1.212-0.775-1.929-0.775s-1.626,0.278-2.142,0.775S91,27.171,91,27.888v29.884c0,0.7,0.586,1.353,1.102,1.831
	c0.514,0.478,1.301,0.743,2.002,0.743C94.807,60.345,95.596,60.08,96.111,59.602z"/>
<path d="M109.533,54.781c0.701,0,1.223-0.266,1.738-0.744c0.514-0.477,0.729-1.13,0.729-1.83V38.392c0-0.716-0.18-1.394-0.695-1.891
	c-0.519-0.497-1.131-0.774-1.848-0.774s-1.248,0.277-1.766,0.774c-0.516,0.497-0.691,1.174-0.691,1.891v13.816
	c0,0.7,0.248,1.353,0.762,1.83C108.275,54.516,108.832,54.781,109.533,54.781z"/>
<path d="M124.92,43.38c-0.717,0-1.479,0.277-1.997,0.773c-0.518,0.498-0.923,1.175-0.923,1.891v6.163c0,0.7,0.389,1.353,0.904,1.83
	c0.514,0.478,1.199,0.744,1.902,0.744c0.701,0,1.588-0.266,2.102-0.744c0.514-0.477,1.092-1.13,1.092-1.83v-6.163
	c0-0.716-0.538-1.394-1.054-1.891C126.429,43.657,125.637,43.38,124.92,43.38z"/>
<path d="M80.982,69.698c-1.666,0.042-3.302,0.417-4.818,1.101c-1.532,0.702-2.88,1.745-3.945,3.051
	c-3.328,4.208-3.416,10.127-0.216,14.436c1.575,2.014,3.785,3.436,6.272,4.032c2.62,0.639,5.541,0.542,8.111-0.277L87,91.92v-5.928
	l-0.293,0.051c-1.336,0.646-2.878,1.015-4.362,1.084c-1.538,0.121-3.115-0.33-4.344-1.268c-0.878-0.679-1.554-1.604-1.896-2.659
	c-0.377-1.149-0.432-2.383-0.138-3.556c0.275-1.2,0.941-2.272,1.902-3.042c0.852-0.713,1.891-1.162,2.994-1.292
	c1.949-0.216,4.094,0.154,5.832,1.063L87,76.438v-5.962l-0.448-0.072C84.812,69.844,82.809,69.605,80.982,69.698z"/>
<path d="M110.521,71.434c-3.595-2.225-8.106-2.35-11.818-0.331c-3.717,2.02-6.061,5.874-6.149,10.102
	c0.055,3.515,1.688,6.818,4.445,8.998c2.757,2.179,6.349,3.002,9.78,2.243c4.661-0.878,8.293-4.546,9.125-9.215
	C116.735,78.563,114.593,73.866,110.521,71.434z M110.151,81.861c-0.171,1.542-0.948,2.951-2.161,3.919s-2.758,1.414-4.301,1.241
	c-1.54-0.172-2.948-0.95-3.917-2.162c-0.967-1.211-1.414-2.757-1.241-4.299c0.174-1.541,0.951-2.95,2.161-3.919
	c1.213-0.967,2.76-1.413,4.301-1.24s2.948,0.95,3.917,2.162C109.877,78.774,110.324,80.32,110.151,81.861z"/>
<g id="Arrow_26_3_">
</g>
<g id="Arrow_26_2_" enable-background="new    ">
</g>
<g id="Arrow_26_1_" enable-background="new    ">
</g>
<g id="Arrow_26" enable-background="new    ">
</g>
</svg>
