<?xml version="1.0" encoding="utf-8"?>
<!-- Generator: Adobe Illustrator 16.0.0, SVG Export Plug-In . SVG Version: 6.00 Build 0)  -->
<!DOCTYPE svg PUBLIC "-//W3C//DTD SVG 1.1//EN" "http://www.w3.org/Graphics/SVG/1.1/DTD/svg11.dtd">
<svg version="1.1" id="Слой_1" xmlns="http://www.w3.org/2000/svg" xmlns:xlink="http://www.w3.org/1999/xlink" x="0px" y="0px"
	 width="128px" height="128px" viewBox="0 0 128 128" enable-background="new 0 0 128 128" xml:space="preserve">
<path d="M3,102.399c0-0.026,0.622,0.374,1.113,0.38C4.149,102.514,4.186,103,4.222,103c-0.036,0-0.073,0-0.109,0
	c-0.012,0-0.024-0.221-0.037,0c0.164,0,0.328,0,0.491,0c-0.013-0.198-0.026-0.32-0.039-0.409c6.139,6.454,12.351,12.89,18.46,19.37
	c1.838,1.953,3.605,4.022,5.377,6.039C59.988,128,92,128,123,128c0-8.534,0-17.066,0-25.601
	c-38.979,0.036-78.948,0.073-118.485,0.108c-0.015-0.07-0.03-0.092-0.045-0.084c3.919-4.563,7.233-10.091,11.922-13.635
	c9.79-7.399,13.077-16.258,11.976-28.345C27.335,49.097,28.117,37,28.117,26C60.605,26,92,26,123,26c0-9,0-17.466,0-26
	C83,0,43,0,3,0C3,34.134,3,68.267,3,102.399z M4.452,102.445c-0.028,0.042-0.055,0.129-0.083,0.1
	C4.397,102.513,4.424,102.478,4.452,102.445z"/>
<path d="M105,76c0-8,0-16,0-24c-17,0-33,0-50,0c0,8,0,16,0,24C72,76,88,76,105,76z"/>
<g id="Arrow_26_3_">
</g>
<g id="Arrow_26_2_" enable-background="new    ">
</g>
<g id="Arrow_26_1_" enable-background="new    ">
</g>
<g id="Arrow_26" enable-background="new    ">
</g>
</svg>
