<?xml version="1.0" encoding="utf-8"?>
<!-- Generator: Adobe Illustrator 16.0.0, SVG Export Plug-In . SVG Version: 6.00 Build 0)  -->
<!DOCTYPE svg PUBLIC "-//W3C//DTD SVG 1.1//EN" "http://www.w3.org/Graphics/SVG/1.1/DTD/svg11.dtd">
<svg version="1.1" id="Слой_1" xmlns="http://www.w3.org/2000/svg" xmlns:xlink="http://www.w3.org/1999/xlink" x="0px" y="0px"
	 width="128px" height="128px" viewBox="0 0 128 128" enable-background="new 0 0 128 128" xml:space="preserve">
<path d="M36.271,129h59.458c8.486,0,15.271-6.922,15.271-14.814V14.814C111,6.921,104.215,1,95.729,1H36.271
	C27.786,1,21,6.921,21,14.814v99.371C21,122.078,27.786,129,36.271,129z M30,14.814C30,11.884,32.748,10,36.271,10h59.458
	c3.523,0,6.271,1.884,6.271,4.814v99.371c0,2.931-2.747,5.814-6.271,5.814H36.271c-3.523,0-6.271-2.884-6.271-5.814V14.814z"/>
<rect x="46" y="25" width="40" height="9"/>
<rect x="46" y="43" width="40" height="9"/>
<rect x="46" y="62" width="40" height="9"/>
<g id="Arrow_26_3_">
</g>
<g id="Arrow_26_2_" enable-background="new    ">
</g>
<g id="Arrow_26_1_" enable-background="new    ">
</g>
<g id="Arrow_26" enable-background="new    ">
</g>
</svg>
