<?xml version="1.0" encoding="utf-8"?>
<!-- Generator: Adobe Illustrator 16.0.0, SVG Export Plug-In . SVG Version: 6.00 Build 0)  -->
<!DOCTYPE svg PUBLIC "-//W3C//DTD SVG 1.1//EN" "http://www.w3.org/Graphics/SVG/1.1/DTD/svg11.dtd">
<svg version="1.1" id="Слой_1" xmlns="http://www.w3.org/2000/svg" xmlns:xlink="http://www.w3.org/1999/xlink" x="0px" y="0px"
	 width="128px" height="128px" viewBox="0 0 128 128" enable-background="new 0 0 128 128" xml:space="preserve">
<path d="M63.999,0c-0.965,0-1.923-0.001-2.876,0.043L48.03,36h11.403c6.782,0,10.438,5.231,8.115,11.612L51.4,92H37.842L55.17,45
	H44.976L27.649,92H14.085L34.46,36h0.004L46.721,2.338C19.768,9.879,0,34.628,0,63.988c0,30.23,20.96,55.756,49.141,62.457L61.02,94
	h0.007l20.953-58h24.972c6.789,0,10.445,5.245,8.123,11.626l-14.19,38.979C99.804,89.571,96.336,92,93.176,92H75.177l-13.08,35.959
	c0.633,0.018,1.266,0.036,1.902,0.036c35.347,0,64.001-28.651,64.001-63.997C128,28.65,99.346,0,63.999,0z"/>
<polygon points="92.531,45 78.26,83 88.451,83 102.723,45 "/>
<g id="Arrow_26_3_">
</g>
<g id="Arrow_26_2_" enable-background="new    ">
</g>
<g id="Arrow_26_1_" enable-background="new    ">
</g>
<g id="Arrow_26" enable-background="new    ">
</g>
</svg>
