<?xml version="1.0" encoding="utf-8"?>
<!-- Generator: Adobe Illustrator 16.0.0, SVG Export Plug-In . SVG Version: 6.00 Build 0)  -->
<!DOCTYPE svg PUBLIC "-//W3C//DTD SVG 1.1//EN" "http://www.w3.org/Graphics/SVG/1.1/DTD/svg11.dtd">
<svg version="1.1" id="Слой_1" xmlns="http://www.w3.org/2000/svg" xmlns:xlink="http://www.w3.org/1999/xlink" x="0px" y="0px"
	 width="128px" height="128px" viewBox="0 0 128 128" enable-background="new 0 0 128 128" xml:space="preserve">
<path d="M120.525,49.795c-2.552,0.809-4.461,2.506-4.473,6.08L115.992,74h2.147l-0.063-12.859c-0.014-2.804-0.225-6.02,1.332-7.815
	c0.335-0.386,0.73-0.631,1.169-0.844c0.264-0.128,0.542-0.208,0.832-0.286c1.988-0.543,4.372-0.303,6.433-0.137
	c0.069,0.005,0.122,0.011,0.157,0.011v-2.498C125.812,49.591,122.575,49.147,120.525,49.795z"/>
<rect x="62" y="50" width="3" height="24"/>
<path d="M32,64.295c0,2.558,0.282,5.296-1.186,6.882c-1.465,1.582-4.064,1.707-6.404,1.707c-2.348,0-4.59-0.328-6.064-1.926
	C16.871,69.363,17,67.703,17,65.162V50h-3v14.474c0,3.438,0.688,6.502,2.51,8.512c1.824,2.014,4.844,1.818,7.898,1.818
	c3.046,0,6.686-0.072,8.513-2.086C34.742,70.709,35,67.045,35,63.606V50h-3V64.295z"/>
<path d="M9,70.689c0,2.43-0.566,4.23-1.773,5.473C6.02,77.406,4.267,78,1.915,78H0v2h1.265c3.237,0,5.687-0.904,7.298-2.486
	C10.174,75.93,11,73.426,11,70.246V50H9V70.689z"/>
<path d="M48.349,49.62c-3.046,0-6.564,0.071-8.392,2.086C38.136,53.714,38,57.379,38,60.818V75h2V60.128
	c0-2.558,0.154-5.296,1.623-6.882c1.465-1.582,4.283-1.706,6.622-1.706c2.348,0,4.762,0.327,6.236,1.924
	C55.957,55.061,56,56.721,56,59.261V75h2V59.951c0-3.439-0.25-6.504-2.071-8.513C54.103,49.424,51.404,49.62,48.349,49.62z"/>
<path d="M71,66.08l9.936,0.041l1.652,0.006c8.354,0.035,8.643-16.375-0.084-16.404L70,49.68V50h-1v25h2V66.08z M71,52.059
	l10.007-0.027c3.358-0.009,5.413,2.179,5.413,5.518c0,1.486-0.083,3.169-1.02,4.393c-0.837,1.095-1.755,1.385-3.036,1.387L71,63.35
	V52.059z"/>
<path d="M101.746,75.193c3.543,0.309,7.302-0.33,10.077-2.637c1.19-0.988-0.454-2.623-1.804-1.469
	c-3.286,2.809-11.087,2.379-14.025-0.574c-1.53-1.539-2.141-3.379-2.222-5.49c-0.04-1.011,0.028-2.022,0.16-3.032l18.46,0.048
	c0-3.252,0.181-6.379-1.493-9.279c-2.349-4.07-6.209-3.742-10.209-3.616c-5.574,0.17-9.027,4.615-9.117,10.177
	c-0.008,3.791-0.425,7.56,1.463,11.023C94.939,73.834,97.908,74.859,101.746,75.193z M96.981,52.65
	c1.79-1.368,7.7-1.346,9.622-0.402c2.313,1.137,3.611,3.657,3.802,7.559l-16.618-0.097C93.929,56.58,94.961,54.194,96.981,52.65z"/>
<polygon points="67,82.693 63.566,77 63,77 63,84 64,84 64,78.572 67.295,84 68,84 68,77 67,77 "/>
<polygon points="70,84 75,84 75,83 71,83 71,81 75,81 75,80 71,80 71,78 75,78 75,77 70,77 "/>
<polygon points="76,78 78,78 78,84 79,84 79,78 82,78 82,77 76,77 "/>
<path d="M89.307,81.651c-0.148,0.59-0.27,1.122-0.36,1.577c-0.115-0.797-0.302-1.658-0.562-2.564L87.352,77h-1.153l-1.374,4.888
	c-0.033,0.119-0.141,0.569-0.326,1.341c-0.086-0.488-0.187-0.992-0.304-1.486L83.095,77h-0.98l1.917,7h0.975l1.531-5.378
	c0.065-0.234,0.137-0.454,0.212-0.786c0.024,0.105,0.1,0.295,0.228,0.756L88.498,84h0.921l1.98-7h-0.962L89.307,81.651z"/>
<path d="M97.26,77.375c-0.534-0.318-1.137-0.479-1.802-0.479c-1.02,0-1.85,0.34-2.493,1.018c-0.645,0.678-0.966,1.615-0.966,2.814
	c0,0.633,0.139,1.236,0.414,1.803s0.681,1.016,1.217,1.344c0.535,0.33,1.142,0.492,1.823,0.492c0.627,0,1.21-0.146,1.753-0.445
	c0.541-0.297,0.96-0.734,1.256-1.313c0.296-0.576,0.442-1.232,0.442-1.965c0-0.723-0.14-1.369-0.421-1.938
	C98.203,78.137,97.795,77.693,97.26,77.375z M97.223,82.793c-0.464,0.506-1.056,0.758-1.775,0.758c-0.706,0-1.293-0.25-1.762-0.752
	c-0.467-0.5-0.701-1.186-0.701-2.055c0-1.086,0.244-1.863,0.731-2.328c0.488-0.465,1.069-0.697,1.747-0.697
	c0.476,0,0.904,0.121,1.287,0.361c0.382,0.242,0.673,0.582,0.871,1.021c0.198,0.438,0.3,0.951,0.3,1.537
	C97.921,81.568,97.687,82.287,97.223,82.793z"/>
<path d="M104.465,81.32c-0.131-0.119-0.322-0.238-0.576-0.359c0.692-0.098,1.205-0.32,1.536-0.672
	c0.333-0.352,0.498-0.781,0.498-1.295c0-0.396-0.099-0.76-0.299-1.088c-0.202-0.328-0.47-0.569-0.804-0.7
	c-0.335-0.129-0.824-0.206-1.468-0.206H100v7h1v-3h1.214c0.247,0,0.424,0.031,0.533,0.053c0.148,0.037,0.293,0.111,0.436,0.203
	s0.305,0.257,0.484,0.487c0.182,0.229,0.412,0.442,0.69,0.874L105.313,84h1.202l-1.256-1.843
	C105.009,81.774,104.744,81.576,104.465,81.32z M103.16,80H101v-2h2.391c0.537,0,0.929,0.021,1.176,0.241
	c0.248,0.221,0.371,0.458,0.371,0.798c0,0.234-0.063,0.427-0.191,0.626c-0.128,0.197-0.314,0.224-0.562,0.315
	C103.939,80.07,103.596,80,103.16,80z"/>
<polygon points="113.218,77 111.923,77 108,80.605 108,77 107,77 107,84 108,84 108,81.744 109.35,80.468 112.089,84 113.351,84 
	110.188,79.814 "/>
<path d="M118.34,80.443c-0.289-0.133-0.822-0.285-1.599-0.461s-1.256-0.348-1.44-0.516c-0.188-0.166-0.281-0.379-0.281-0.641
	c0-0.297,0.133-0.553,0.396-0.764c0.266-0.213,0.687-0.318,1.265-0.318c0.555,0,0.974,0.115,1.258,0.35
	c0.284,0.232,0.45,0.578,0.501,1.033l0.916-0.068c-0.017-0.424-0.136-0.803-0.354-1.139c-0.221-0.334-0.535-0.588-0.943-0.76
	c-0.41-0.172-0.881-0.258-1.417-0.258c-0.486,0-0.927,0.082-1.325,0.244c-0.396,0.166-0.699,0.406-0.906,0.725
	c-0.207,0.314-0.31,0.656-0.31,1.02c0,0.332,0.085,0.633,0.253,0.898c0.169,0.268,0.427,0.494,0.771,0.674
	c0.266,0.141,0.731,0.291,1.394,0.451c0.664,0.158,1.091,0.277,1.286,0.352c0.301,0.115,0.518,0.256,0.649,0.426
	c0.133,0.17,0.198,0.367,0.198,0.594c0,0.223-0.069,0.428-0.205,0.619c-0.137,0.188-0.345,0.336-0.624,0.445
	c-0.279,0.107-0.601,0.16-0.965,0.16c-0.41,0-0.78-0.07-1.108-0.213c-0.327-0.143-0.569-0.33-0.726-0.563
	c-0.157-0.23-0.256-0.527-0.298-0.889l-0.901,0.08c0.012,0.482,0.145,0.916,0.396,1.297c0.252,0.383,0.599,0.67,1.04,0.859
	c0.44,0.191,0.988,0.285,1.643,0.285c0.515,0,0.979-0.094,1.391-0.281c0.412-0.191,0.728-0.455,0.948-0.795
	c0.22-0.338,0.329-0.701,0.329-1.086c0-0.387-0.099-0.729-0.299-1.025S118.761,80.637,118.34,80.443z"/>
<g id="Arrow_26_3_">
</g>
<g id="Arrow_26_2_" enable-background="new    ">
</g>
<g id="Arrow_26_1_" enable-background="new    ">
</g>
<g id="Arrow_26" enable-background="new    ">
</g>
</svg>
