<?xml version="1.0" encoding="utf-8"?>
<!-- Generator: Adobe Illustrator 16.0.0, SVG Export Plug-In . SVG Version: 6.00 Build 0)  -->
<!DOCTYPE svg PUBLIC "-//W3C//DTD SVG 1.1//EN" "http://www.w3.org/Graphics/SVG/1.1/DTD/svg11.dtd">
<svg version="1.1" id="Слой_1" xmlns="http://www.w3.org/2000/svg" xmlns:xlink="http://www.w3.org/1999/xlink" x="0px" y="0px"
	 width="128px" height="128px" viewBox="0 0 128 128" enable-background="new 0 0 128 128" xml:space="preserve">
<path d="M13,48c-1,0-1.581,0-2.507,0c0,1,0.005,1.859-0.001,2.711c-0.054,7.818-0.132,15.675-0.156,23.495
	c-0.019,5.706-3.286,7.07-8.167,7.346c-0.72,0.04-1.446-0.014-2.169-0.034C0,82.389,0,83,0,84c1.597,0,3.192,0,4.789,0
	c7.6-3,8.217-3.762,8.223-12.195C13.018,65.43,13,59.119,13,52.744C13,51.239,13,50,13,48z"/>
<path d="M80.066,49.696c-1.184,0.861-2.232,2.085-2.959,3.362c-2.327,4.088-2.351,8.61-1.863,13.104
	c0.92,8.489,5.117,12.163,14.796,12.169c2.12-0.062,5.345-0.436,8.071-2.523c3.541-2.712,4.44-6.59,4.659-10.765
	c0.25-4.755,0.273-9.529-2.909-13.446C95.948,46.781,85.4,45.817,80.066,49.696z M99.203,69.23
	c-0.577,3.133-2.849,5.391-6.008,5.893c-2.787,0.442-5.777,0.515-8.54,0.005c-4.304-0.793-6.142-4.268-6.498-8.229
	c-0.295-3.269-0.243-6.693,0.41-9.895c0.997-4.886,4.765-7.138,10.526-7.043c6.627,0.108,10.003,2.828,10.712,9.414
	C100.153,62.609,99.797,66.008,99.203,69.23z"/>
<path d="M70.417,54.405c-0.16-3.423-2.403-5.75-5.696-6.238c-3.532-0.523-7.211-0.719-10.752-0.354
	c-4.556,0.47-6.809,2.498-7.036,7.175C46.574,62.344,46.838,70,46.838,77c0.728,0,1.413,0,2.327,0c0,0-0.009-1.514,0.002-2.366
	c0.081-6.226,0.027-12.346,0.305-18.563c0.173-3.884,2.178-5.646,6.064-6.007c1.723-0.161,3.478-0.151,5.204-0.037
	c5.394,0.359,7.26,2.432,7.285,7.872C68.053,63.55,68,69.216,68,74.867C68,75.719,68,77,68,77c1,0,1.872,0,2.87,0
	c0,0,0.013-1.426-0.002-2.207C70.739,67.918,70.736,61.271,70.417,54.405z"/>
<path d="M121.757,62.267c-0.893-0.289-1.82-0.467-2.728-0.714c-2.506-0.682-5.03-1.308-7.506-2.083
	c-1.642-0.514-2.619-1.69-2.838-3.484c-0.404-3.325,1.31-5.477,4.852-5.88c4.101-0.467,8.093-0.091,11.951,1.957
	c0.456-0.797,0.828-1.447,1.282-2.24c-4.865-2.59-9.841-2.955-14.913-1.96c-3.873,0.76-5.751,2.995-5.956,6.445
	c-0.237,4.002,1.085,6.264,4.997,7.613c3.333,1.15,6.832,1.813,10.206,2.859c3.378,1.047,4.217,2.394,3.988,5.743
	c-0.202,2.953-1.535,4.356-4.756,4.996c-5.037,1.001-9.753-0.009-14.293-2.451c-0.452,0.686-0.837,1.271-1.26,1.912
	c0.305,0.262,0.491,0.484,0.729,0.615c5.33,2.94,10.975,3.416,16.819,2.045c2.319-0.543,4.067-1.887,4.909-4.187
	C129.229,68.016,127.281,64.054,121.757,62.267z"/>
<path d="M39,48c0,1,0,1.932,0,2.72c0,6.022,0.133,12.044,0.1,18.067c-0.02,3.58-1.387,5.922-4.576,6.392
	c-3.017,0.444-6.176,0.444-9.191-0.01c-3.262-0.491-4.628-2.493-4.764-6.065c-0.176-4.636-0.133-9.362-0.172-14.003
	C20.377,52.795,20.399,51,20.399,48c-0.912,0-1.605,0-2.418,0c0,8-0.165,15.205,0.07,22.657c0.117,3.709,2.395,6.448,6.143,6.902
	c3.686,0.446,7.52,0.607,11.18,0.103c4.189-0.577,6.247-3.362,6.347-7.581c0.16-6.813,0.166-13.726,0.221-20.541
	C41.945,49.058,41.813,49,41.745,48C40.859,48,40,48,39,48z"/>
<g id="Arrow_26_3_">
</g>
<g id="Arrow_26_2_" enable-background="new    ">
</g>
<g id="Arrow_26_1_" enable-background="new    ">
</g>
<g id="Arrow_26" enable-background="new    ">
</g>
</svg>
