<?xml version="1.0" encoding="utf-8"?>
<!-- Generator: Adobe Illustrator 16.0.0, SVG Export Plug-In . SVG Version: 6.00 Build 0)  -->
<!DOCTYPE svg PUBLIC "-//W3C//DTD SVG 1.1//EN" "http://www.w3.org/Graphics/SVG/1.1/DTD/svg11.dtd">
<svg version="1.1" id="Слой_1" xmlns="http://www.w3.org/2000/svg" xmlns:xlink="http://www.w3.org/1999/xlink" x="0px" y="0px"
	 width="128px" height="128px" viewBox="0 0 128 128" enable-background="new 0 0 128 128" xml:space="preserve">
<g>
	<path d="M61.754,33h0.424c0,0,0.424-0.081,0.424-0.505s-0.424-0.888-0.848-1.312l-0.848-0.444c-0.424,0-0.424-0.011-0.424,0.413
		s0.424,0.924,0.424,0.924C61.33,32.5,61.33,33,61.754,33z"/>
	<path d="M117.653,106.028c-0.848-0.764-2.119-1.356-2.967-1.78c-1.271-0.509-2.119-1.145-2.967-1.907
		c-1.271-0.763-1.695-1.652-2.119-2.585l-0.424-3.137c-0.424-1.991-0.848-3.263-1.271-3.856c-0.423-0.593-0.847-0.932-1.694-0.932
		c0.848-2.755,1.271-5.595,1.271-8.519c0-5.891-1.271-11.4-3.391-15.639c-1.695-4.661-4.662-9.323-8.477-13.562
		c-1.695-2.543-3.39-4.661-4.661-6.78c-1.271-1.695-2.119-3.391-2.967-5.086c-0.848-1.271-1.271-2.967-1.695-4.662
		c-0.424-2.118-0.424-3.813-0.848-5.085c0-1.271-0.424-2.967-0.424-5.51c-0.424-2.967-0.424-5.085-0.848-7.204
		c-0.424-3.391-1.271-5.934-2.119-8.477c-1.271-2.119-2.543-4.237-4.237-5.509c-1.271-1.271-2.967-2.119-4.662-2.967
		c-2.119-0.848-3.814-1.271-5.086-1.271c-1.271-0.424-2.543-0.424-3.813-0.424c-3.391,0-6.357,0.424-8.9,1.271
		s-4.237,2.543-5.509,4.238c-1.441,1.695-2.416,3.813-2.967,5.933s-0.806,4.238-0.806,7.205c0,3.813,0.212,8.052,0.636,12.29
		c0.467,4.238,0.679,6.78,0.679,7.628c0,1.695-0.424,3.814-1.229,5.51c-0.805,1.695-2.246,3.814-4.45,6.356l-3.178,3.814
		c-2.543,2.967-4.153,5.934-4.832,8.9c-0.848,3.39-1.61,5.933-2.33,7.628c-0.679,1.695-1.61,3.391-2.84,5.679l-1.483,2.67
		c-1.525,2.84-2.246,5.001-2.246,6.526c-0.085,0.255-0.085,0.679-0.085,1.145c0,0.678,0.17,1.229,0.509,1.653
		c-0.297,0.339-0.509,0.678-0.678,0.975c-0.085,0.212-0.17,0.466-0.255,0.72c-0.084,0.17-0.169,0.552-0.381,1.06
		c-0.17,0.509-0.424,1.161-0.721,1.84C22.299,94.687,21.705,95,21.324,95H16.45c-0.933,0-1.822,0.449-2.755,1.509
		s-1.356,2.492-1.356,4.357c0,0.593,0.17,1.966,0.509,4.17c0.339,2.246,0.509,3.505,0.509,3.929s-0.085,0.842-0.17,1.266
		c-0.085,0.465-0.254,0.844-0.424,1.225c-0.169,0.424-0.339,0.805-0.593,1.187c-0.17,0.423-0.424,0.846-0.721,1.313
		c-0.297,0.424-0.594,0.889-0.864,1.355c-0.288,0.771-0.433,1.495-0.433,2.174c0,0.674,0.288,1.275,0.873,1.81
		c0.636,0.529,1.483,0.966,2.543,1.301c1.102,0.39,2.119,0.678,3.009,0.869c0.975,0.194,2.076,0.39,3.264,0.58
		c1.229,0.195,1.991,0.34,2.331,0.437c3.433,0.771,7.374,1.941,11.823,3.467c4.408,1.61,7.9,2.416,9.978,2.416
		c3.305,0,5.027-1.313,8.027-3.856v0.127c3-1.479,7-2.225,12-2.225v-0.009c4,0,9.027,0.407,15.807,1.229
		c1.271,2.586,3.455,4.281,6.846,5.171l2.998,0.339c1.695,0,3.406-0.382,4.678-1.145c1.271-0.72,2.975-1.907,4.67-3.56l4.242-3.606
		c2.119-1.802,4.24-3.323,6.358-4.577c2.543-1.195,4.239-2.043,5.087-2.467c1.271-0.381,2.119-0.975,2.967-1.822
		c0.848-0.763,1.271-1.822,1.271-3.263C118.924,107.766,118.501,106.876,117.653,106.028z M88.453,61.147
		c2.119,0.424,3.814,1.695,5.51,4.238s2.543,5.51,2.543,9.747c0,3.052-0.424,6.526-1.695,10.468c0.424,0.085,1.271,0.17,1.695,0.212
		c0.424,0,0.424,0,0.848,0.085c0,0,0.424,0,0.848,0.042c2.542,0.34,4.661,1.145,5.933,2.416c1.271,1.229,1.695,2.331,1.695,3.264
		c0,0.381,0,0.551-0.424,0.551c0,0-0.424-0.255-0.424-0.806c-0.424-0.551-0.848-1.144-1.271-1.779
		c-0.424-0.679-1.271-1.271-2.967-1.823c-1.271-0.593-3.39-0.89-5.509-0.89c-1.271,0-2.119,0.382-3.391,1.102
		c-0.848,0.721-1.271,1.441-2.119,2.162c-0.424,0.72-0.848,1.102-0.848,1.102c-0.424,0-0.424-0.212-0.424-0.594
		c1.271-2.458,2.967-4.025,4.662-4.704c1.695-4.492,2.119-8.01,2.119-10.383c0-2.967-0.424-5.509-1.695-8.476
		c-1.271-2.543-3.391-4.238-5.51-5.086C88.029,61.571,88.029,61.571,88.453,61.147z M65.145,21.396
		c1.271-0.848,2.543-1.271,3.814-1.271c1.695,0,2.967,0.424,4.237,1.695c0.848,1.271,1.271,2.966,1.271,5.509
		c0,2.119-0.424,3.814-0.848,6.357c-0.848-0.424-1.271-0.848-2.118-0.848c-0.424,0-0.848-0.424-0.848-0.424
		c1.694-0.424,2.542-1.695,2.542-3.814c0-1.271-0.424-2.119-0.848-3.391c-0.847-0.847-1.694-1.694-2.966-1.694
		c-0.848,0-1.695,0.424-2.543,1.271c-0.848,1.271-0.848,2.119-0.848,3.814c0,0.848,0,1.695,0.424,2.119
		c-0.424,0-0.848-0.424-1.271-0.424c-0.848-1.695-1.271-3.391-1.271-5.51C63.873,23.515,64.297,22.667,65.145,21.396z
		 M69.807,25.969c0-0.424-0.424-0.38-0.424-0.804c0.424,0,0.848-0.401,0.848-0.401c0.424,0,0.848,0.435,1.271,0.858
		s0.424,0.765,0.424,1.188s0,1.189,0.423,1.189h-0.847C71.078,27,70.654,25.969,69.807,25.969z M68.535,32.414
		c4.237,1.271,6.356,2.543,6.78,3.391c0.424,0,0.424,0.424,0.424,0.848c0,1.271-0.848,2.119-1.695,2.966l-3.813,2.543
		c-4.238,2.967-7.629,4.662-10.596,4.662c-2.118,0-4.237-0.848-5.933-2.543l-2.543-2.543c-0.424-0.424-0.848-1.271-1.271-2.119
		c2.543,2.119,5.51,3.391,8.477,3.391c3.39,0,7.589-1.695,13.099-5.509c0,0,0.537-0.424-0.463-0.424v-0.848
		c-5,4.237-9.709,5.933-13.099,5.933c-2.543,0-5.066-1.271-7.609-3.39c-0.424-0.848-0.838-1.271-0.838-1.271
		c0-1.695,1.7-3.391,4.243-5.086c2.967-1.695,5.088-2.543,6.359-2.543C61.752,29.871,64.721,30.719,68.535,32.414z M52.639,24.697
		c1.271,0,2.335,1.303,2.335,3.303h-0.848c0-1-0.424-1-0.424-2H52v-0.791C53,25.209,52.639,24.697,52.639,24.697z M49.888,23.091
		c0.424-1.271,1.695-2.119,2.967-2.119c1.695,0,2.543,0.848,3.391,2.119s1.013,2.542,1.013,3.813c0,1.695-0.258,2.543-0.258,2.543
		V30h-1v-0.553v-0.424c0-1.271-0.301-2.543-0.725-3.814c-0.848-0.847-1.211-1.271-2.059-1.271s-1.664,0.424-2.088,1.271
		c-0.848,0.848-0.832,1.695-0.832,2.967c0,2.119,0.431,3.391,2.126,4.238c-0.424,0.424-0.844,0.424-1.268,0.848
		c-1.695-1.695-2.286-3.391-2.286-5.086C48.869,26.057,49.04,24.785,49.888,23.091z M50.27,123.53
		c-2.034,2.539-4.492,3.853-7.459,3.853c-1.145,0-4.18-0.975-9.307-2.839C28.375,122.662,24,121.429,20,120.853v-0.013
		c-5-0.679-8.025-1.835-8.449-3.479c0-0.966,0.5-2.322,1.56-4.145c1.06-1.737,1.543-3.476,1.543-5.213
		c0-0.89-0.183-2.161-0.521-3.729c-0.339-1.61-0.515-2.755-0.515-3.433c0-1.483,0.547-2.907,1.606-4.138
		C16.029,96.279,17.552,96,19.798,96h1.145c0.551,0,0.933-0.016,1.145-0.016c0.975-0.213,1.695-0.411,2.119-0.666
		c0.423-0.297,0.678-0.884,0.805-1.773c0.085-0.933,0.424-1.819,1.018-2.624c0.593-0.806,1.822-1.397,3.602-1.736
		c1.399,0.339,2.67,0.976,3.772,1.95c1.144,0.975,2.034,1.95,2.585,2.925c0.636,0.891,1.44,2.162,2.331,3.814
		c0.932,1.652,1.652,2.882,2.246,3.688l2.882,3.856c4.831,6.145,7.247,11.209,7.247,15.214
		C50.693,121.742,50.693,122.709,50.27,123.53z M59.593,115.245c-5.086,0-8.899-1.187-10.68-3.602
		c-0.89-1.653-1.313-2.501-1.313-2.543c0-0.212,0.042-0.297,0.127-0.297c0.975,0,2.119-0.509,2.967-1.525
		c1.271-0.975,1.695-1.865,1.695-2.755c0-1.695-2.543-4.577-7.332-8.73l-4.492-2.924c-3.561-2.585-5.807-4.619-6.738-6.019
		c-0.848-1.44-1.314-3.093-1.314-5c0-2.586,0.933-6.104,2.713-9.917c1.779-4.238,3.263-7.205,4.492-8.477l0.424,0.424
		c0.339,0,0.551,0,0.636,0.424c-1.483,1.695-3.009,4.238-4.535,8.053c-1.567,3.813-2.331,7.035-2.331,9.959
		c0,2.373,0.933,4.195,2.84,5.51c-0.17-1.018-0.254-2.035-0.254-3.01c0-4.873,1.737-10.764,5.17-17.121l3.179-6.356
		c0.085,0,0.212-0.848,0.382-1.695c0.127-1.271,0.763-2.967,1.949-5.934l2.67-5.086c0.848-1.694,1.271-3.39,1.271-4.661l2.542,2.119
		c1.271,1.694,3.391,2.118,5.934,2.118c2.967,0,6.356-1.271,10.595-4.237l3.814-2.967c0.848,1.695,1.695,3.814,2.543,5.934
		c1.271,2.118,2.119,4.237,3.39,6.356c0,2.119,0.424,3.391,0.848,5.086c0.848,1.271,1.271,2.543,2.119,3.813
		c0.848,1.271,1.695,2.543,2.543,3.814c0.848,1.695,1.695,3.814,2.119,6.357c0.848,2.967,0.848,6.145,0.848,10.001
		c0,2.543,0,5.383-0.424,8.646c-0.848-0.636-1.695-0.932-2.543-0.932c-1.271,0-2.222,0.635-3.069,1.991S81,95.496,81,98.251v1.568
		c1,0.551,0.527,1.864,0.527,3.983C76.018,111.432,68.916,115.245,59.593,115.245z M116.424,111.664
		c-0.848,0.679-1.695,1.188-2.966,1.526c-0.848,0.381-2.543,1.06-4.238,2.076c-2.119,1.025-3.814,2.208-5.51,3.56l-7.204,6.23
		c-0.424,0.212-0.424,0.424-1.271,0.721c-0.424,0.339-0.848,0.636-1.271,0.932c-0.424,0.34-1.271,0.636-2.119,0.806
		c-0.848,0.254-1.82,0.381-2.668,0.381c-3.391,0-6.176-1.602-8.176-4.788v-0.013v-0.072l0.973-4.704c0-1.688,0.09-3.179,0.514-4.492
		c0-1.314,0.514-2.162,0.514-2.543v-1.271v-1.822v-3.772v-4.916v-1.398c0-4.449,0.82-6.653,2.938-6.653
		c0.848,0,1.258,0.382,2.105,1.102c0.424,1.78,0.841,3.349,1.688,4.704c1.271,1.823,2.964,2.755,6.354,2.755
		c0.848,0,2.117-0.381,3.389-1.102c0.848-0.721,2.117-1.483,2.541-2.331c0.848-0.848,1.695-1.652,2.543-2.373
		c0.424-0.721,1.271-1.102,1.694-1.102s0.424,0.042,0.424,0.169c0.424,0.467,0.424,1.313,0.848,2.458l0.424,2.458
		c0.424,1.992,1.271,3.518,2.119,4.619c1.271,1.145,2.119,1.822,2.967,2.119c0.847,0.297,1.694,0.763,2.542,1.441
		c0.848,0.678,1.695,1.61,1.695,2.839C117.271,110.224,116.848,111.028,116.424,111.664z"/>
	<path d="M57.093,33h0.424c0.848-1,1.271-1.353,1.271-1.776c0,0,0-0.464-0.424-0.464c0,0-0.424,0.403-1.271,0.403
		c-0.424,0.424-0.424,0.918-0.424,1.342S56.669,33,57.093,33z"/>
</g>
<g id="Arrow_26_3_">
</g>
<g id="Arrow_26_2_" enable-background="new    ">
</g>
<g id="Arrow_26_1_" enable-background="new    ">
</g>
<g id="Arrow_26" enable-background="new    ">
</g>
</svg>
