<?xml version="1.0" encoding="utf-8"?>
<!-- Generator: Adobe Illustrator 16.0.0, SVG Export Plug-In . SVG Version: 6.00 Build 0)  -->
<!DOCTYPE svg PUBLIC "-//W3C//DTD SVG 1.1//EN" "http://www.w3.org/Graphics/SVG/1.1/DTD/svg11.dtd">
<svg version="1.1" id="Слой_1" xmlns="http://www.w3.org/2000/svg" xmlns:xlink="http://www.w3.org/1999/xlink" x="0px" y="0px"
	 width="128px" height="128px" viewBox="0 0 128 128" enable-background="new 0 0 128 128" xml:space="preserve">
<path d="M78.408,96.455c-0.063,0-0.114,0.016-0.152,0.059c-0.826,0.961-1.189,1.278-1.791,1.753
	c-1.438,1.172-3.085-0.145-4.146-0.767c-2.353-1.376-4.239-0.513-4.702,0.558c-0.457,1.071,0.051,2.366,1.329,2.206
	c1.79-0.237,1.872,0.042,3.173,0.858c2.408,1.537,4.168,0.703,5.074-0.021c0.746-0.601,1.16-1.104,1.553-1.833
	c0.691-1.376,0.123-2.45-0.203-2.771C78.506,96.471,78.463,96.455,78.408,96.455z"/>
<path d="M75.636,20h-0.364c-0.693,0-1.413-0.064-2.142,0.014c-2.446,0.244-4.584,0.797-6.019,1.553
	c-0.067,0.028-0.116,0.132-0.116,0.208c0,0.105,0.091,0.226,0.203,0.226h0.036c0.41,0,0.832-0.184,1.27-0.226
	c3.971-0.4,7.311,0.231,7.479,1.44c0.119,0.914-1.607,1.87-4.164,2.458c-0.138,0.036-0.225,0.138-0.225,0.264
	c0,0.13,0.087,0.235,0.221,0.264c1.07,0.313,2.319,0.502,3.643,0.535c4.107,0.087,7.467-1.285,7.518-3.2
	C83.025,21.621,79.741,20,75.636,20z"/>
<path d="M57.838,29.954c-3.125,0-5.362,0.408-7.303,0.46c-1.943,0.053-3.438-1.373-4.136-2.245c-0.571-0.716-2.41-1.399-3.407,0.896
	c-1.01,2.32,0.859,4.809,2.406,5.133c0,0,2.573,4.775,4.525,2.691c1.381-1.469,2.154-2.267,9.544-2.8
	c3.519-0.26,3.883-1.075,3.772-1.938C63.125,31.134,61.002,29.954,57.838,29.954z"/>
<path d="M64.451,3.629c-35.35,0-64.002,28.617-64.002,63.948C0.449,74.721,1.619,82,3.786,88H8.24c3.945,0,7.611-0.928,10.69-2.536
	c0.774-0.39,1.655-0.634,2.59-0.634c1.964,0,3.651,0.775,4.726,2.527c0.918,1.601,1.784,2.542,2.842,3.207
	c0.914,0.589,2.163,1.072,3.945,0.987c0.845-0.034,2.119-0.237,2.439-1.117c0.365-1.004-0.091-1.761-1.322-2.268
	c-1.725-0.724-2.197-1.786-3.111-3.416c-0.924-1.633-2.914-2.497-3.225-5.565c-0.307-3.022,2.063-6.831,6.744-5.616
	c3.385,0.881,5.568,5.053,6.387,6.488c0.426,0.749,1.943,1.629,3.169,0.512c1.223-1.13,2.349-1.13,3.273,0.31
	c0.783,1.218,6.54,8.879,12.772,9.087c6.331,0.203,9.709-1.431,12.469-1.333c1.932,0.075,2.872,1.05,3.98,1.228
	c1.947,0.309,3.327-1.448,5.473-1.342c1.731,0.08,3.627,1.239,5.57,1.239c1.941,0,6.031-2.345,5.977-1.38
	c-0.098,1.711-1.414,4.733-1.732,6.129c-0.228,0.965-0.033,3.31-0.613,5.189c-0.52,1.914-2.303,4.335-2.764,5.028
	c-1.565,2.345-2.709,3.057-3.987,5.511c-1.431,2.76-3.775,5.308-4.393,6.129c-0.784,1.05,4.436-0.029,6.285-1.791
	c1.57-1.485,4.325-5.979,8.685-6.937c2.941-0.651,3.526-1.777,3.171-2.823c-0.06-0.114-0.089-0.267-0.089-0.41
	c0-0.398,0.232-0.746,0.571-0.915c3.038-1.261,7.157-2.049,11.686-2.049c2.646,0,5.261,0.356,7.729,0.923
	c6.497-10.018,10.272-21.944,10.272-34.766C128.449,32.267,99.791,3.629,64.451,3.629z M116.488,66.336
	c-3.064,16.837-30.627,22.5-57.43,14.39C33.518,72.998,11.09,57.593,13.687,48.578c1.507-5.257,9.843-7.499,20.946-6.296
	c-1.682,3.433-1.562,7.471,5.791,11.961c8.987,5.103,24.18,9.458,28.283,9.028c1.53-0.152,2.908-0.915,1.53-1.833
	c-1.378-0.919-2.601-2.758-3.367-5.967c-0.434-1.792-0.921-4.288-10.566-6.121c-20.714-3.949-19.912-9.801-19.3-13.172
	c0,0,1.836-8.264,2.608-11.175c0.763-2.907,2.739-9.581,16.075-6.579c7.706,1.735,11.862-0.422,13.986-0.965
	c5.775-1.483,12.15-0.459,15.676,3.165c3.645,3.747,8.672,15.322,11.076,23.979c1.229,4.396,0.898,6.505,0.288,7.993
	c-0.44,1.009-0.706,1.65-2.222,4.226c-0.268,0.461-0.047,0.949,0.537,0.65c4.004-2.056,4.901-4.771,5.536-6.897
	C111.436,53.026,117.885,58.686,116.488,66.336z"/>
<g id="Arrow_26_3_">
</g>
<g id="Arrow_26_2_" enable-background="new    ">
</g>
<g id="Arrow_26_1_" enable-background="new    ">
</g>
<g id="Arrow_26" enable-background="new    ">
</g>
</svg>
