<?xml version="1.0" encoding="utf-8"?>
<!-- Generator: Adobe Illustrator 16.0.0, SVG Export Plug-In . SVG Version: 6.00 Build 0)  -->
<!DOCTYPE svg PUBLIC "-//W3C//DTD SVG 1.1//EN" "http://www.w3.org/Graphics/SVG/1.1/DTD/svg11.dtd">
<svg version="1.1" id="Слой_1" xmlns="http://www.w3.org/2000/svg" xmlns:xlink="http://www.w3.org/1999/xlink" x="0px" y="0px"
	 width="128px" height="128px" viewBox="0 0 128 128" enable-background="new 0 0 128 128" xml:space="preserve">
<path d="M-0.246,71c3.296,31,28.959,55.843,60.648,57.361L53.087,109H59V21h-6.236l7.78-20.775C27.254,1.744,0.639,28-0.503,62H32
	v-6.863l26.125,11.205L32,77.542V71H-0.246z"/>
<path d="M68,21v88h6.295l-7.313,19.34C98.484,126.641,123.955,102,127.236,71H95v6.538L68.882,66.344L95,55.137V62h32.497
	C126.361,29,99.943,1.959,66.846,0.247L74.616,21H68z"/>
<g id="Arrow_26_3_">
</g>
<g id="Arrow_26_2_" enable-background="new    ">
</g>
<g id="Arrow_26_1_" enable-background="new    ">
</g>
<g id="Arrow_26" enable-background="new    ">
</g>
</svg>
