<?xml version="1.0" encoding="utf-8"?>
<!-- Generator: Adobe Illustrator 16.0.0, SVG Export Plug-In . SVG Version: 6.00 Build 0)  -->
<!DOCTYPE svg PUBLIC "-//W3C//DTD SVG 1.1//EN" "http://www.w3.org/Graphics/SVG/1.1/DTD/svg11.dtd">
<svg version="1.1" id="Слой_1" xmlns="http://www.w3.org/2000/svg" xmlns:xlink="http://www.w3.org/1999/xlink" x="0px" y="0px"
	 width="128px" height="128px" viewBox="0 0 128 128" enable-background="new 0 0 128 128" xml:space="preserve">
<g id="Arrow_26_3_">
	<polygon fill="none" points="69.891,42.39 115.609,42.39 115.609,16.11 69.891,16.11 	"/>
	<polygon fill="#070707" points="115.791,29.249 93,16.11 93,23 70,23 70,36 93,36 93,42.39 	"/>
</g>
<g id="Arrow_26_2_" enable-background="new    ">
	<polygon fill="none" points="69.641,90.64 115.359,90.64 115.359,64.36 69.641,64.36 	"/>
	<polygon fill="#070707" points="115.791,77.499 93,64.36 93,71 70,71 70,84 93,84 93,90.64 	"/>
</g>
<g id="Arrow_26_1_" enable-background="new    ">
	<polygon fill="none" points="58.11,40.11 12.39,40.11 12.39,66.39 58.11,66.39 	"/>
	<polygon fill="#070707" points="35,47 35,40.11 12.209,53.249 35,66.39 35,60 58,60 58,47 	"/>
</g>
<g id="Arrow_26" enable-background="new    ">
	<polygon fill="none" points="57.36,83.86 11.64,83.86 11.64,110.14 57.36,110.14 	"/>
	<polygon fill="#070707" points="34,91 34,83.86 11.209,96.999 34,110.14 34,103 57,103 57,91 	"/>
</g>
</svg>
