<?xml version="1.0" encoding="utf-8"?>
<!-- Generator: Adobe Illustrator 16.0.0, SVG Export Plug-In . SVG Version: 6.00 Build 0)  -->
<!DOCTYPE svg PUBLIC "-//W3C//DTD SVG 1.1//EN" "http://www.w3.org/Graphics/SVG/1.1/DTD/svg11.dtd">
<svg version="1.1" id="Слой_1" xmlns="http://www.w3.org/2000/svg" xmlns:xlink="http://www.w3.org/1999/xlink" x="0px" y="0px"
	 width="128px" height="128px" viewBox="0 0 128 128" enable-background="new 0 0 128 128" xml:space="preserve">
<g id="Arrow_26_3_">
</g>
<g id="Arrow_26_2_" enable-background="new    ">
</g>
<g id="Arrow_26_1_" enable-background="new    ">
</g>
<g id="Arrow_26" enable-background="new    ">
</g>
<path d="M64,0C28.653,0,0,28.654,0,64s28.653,64,64,64s64-28.654,64-64S99.347,0,64,0z M78.36,22.039
	c2.359-4.086,7.585-5.487,11.672-3.127c4.086,2.36,5.486,7.585,3.127,11.672c-2.359,4.086-7.585,5.487-11.671,3.127
	C77.401,31.351,76.001,26.125,78.36,22.039z M20.48,72.544c-4.719,0-8.545-3.825-8.545-8.544s3.826-8.544,8.545-8.544
	s8.544,3.825,8.544,8.544S25.199,72.544,20.48,72.544z M28.056,73.305c2.699-2.2,4.424-5.55,4.424-9.305s-1.725-7.105-4.424-9.305
	c2.311-8.946,7.873-16.583,15.351-21.579l6.247,10.464C43.236,48.096,39.04,55.555,39.04,64s4.196,15.904,10.613,20.42
	l-6.247,10.464C35.929,89.889,30.366,82.251,28.056,73.305z M90.032,109.089c-4.087,2.359-9.313,0.959-11.672-3.127
	s-0.959-9.312,3.128-11.671c4.086-2.36,9.312-0.959,11.671,3.127C95.519,101.504,94.118,106.729,90.032,109.089z M90.03,90.476
	c-3.254-1.238-7.018-1.056-10.27,0.822c-3.253,1.877-5.292,5.046-5.847,8.483c-8.902,2.472-18.299,1.473-26.363-2.504l5.938-10.643
	c7.12,3.299,15.677,3.204,22.991-1.019c7.313-4.222,11.674-11.586,12.377-19.401l12.187,0.178
	C100.456,75.366,96.622,84.002,90.03,90.476z M88.857,61.786c-0.703-7.815-5.063-15.179-12.377-19.401
	c-7.314-4.223-15.871-4.318-22.991-1.019l-5.938-10.643c8.064-3.978,17.461-4.977,26.363-2.504c0.555,3.438,2.594,6.606,5.847,8.483
	c3.252,1.878,7.016,2.06,10.27,0.822c6.592,6.474,10.426,15.11,11.014,24.083L88.857,61.786z"/>
</svg>
