<?xml version="1.0" encoding="utf-8"?>
<!-- Generator: Adobe Illustrator 16.0.0, SVG Export Plug-In . SVG Version: 6.00 Build 0)  -->
<!DOCTYPE svg PUBLIC "-//W3C//DTD SVG 1.1//EN" "http://www.w3.org/Graphics/SVG/1.1/DTD/svg11.dtd">
<svg version="1.1" id="Слой_1" xmlns="http://www.w3.org/2000/svg" xmlns:xlink="http://www.w3.org/1999/xlink" x="0px" y="0px"
	 width="128px" height="128px" viewBox="0 0 128 128" enable-background="new 0 0 128 128" xml:space="preserve">
<g id="Arrow_26_3_">
</g>
<g id="Arrow_26_2_" enable-background="new    ">
</g>
<g id="Arrow_26_1_" enable-background="new    ">
</g>
<g id="Arrow_26" enable-background="new    ">
</g>
<path d="M61.143,86.281c-3.569,0-6.119,2.652-6.119,6.426c0,3.569,2.447,6.323,6.018,6.323c3.773,0,6.119-2.754,6.119-6.323
	C67.16,88.934,64.713,86.281,61.143,86.281z"/>
<path d="M60.837,35.389c6.425,0.102,9.688,3.569,9.688,8.771c0,4.59-2.549,8.567-7.139,13.973c-5.1,6.12-6.936,11.923-6.323,17.431
	L57.268,78h7.955l-0.102-2.438c-0.307-5.201,1.325-9.582,5.813-14.885c4.896-5.813,8.771-10.758,8.771-17.693
	c0-7.752-5.304-14.966-17.032-14.966c-5.405,0-11.219,1.646-14.585,4.094l2.448,6.431C53.086,36.605,57.165,35.389,60.837,35.389z"
	/>
</svg>
